<!-- Generated by IcoMoon.io -->
<svg version="1.1" xmlns="http://www.w3.org/2000/svg" width="40" height="40" viewBox="0 0 40 40">
<title>linkedin-with-circle</title>
<path d="M20 0.8c-10.604 0-19.2 8.596-19.2 19.2s8.596 19.2 19.2 19.2 19.2-8.596 19.2-19.2-8.596-19.2-19.2-19.2zM15.3 27.958h-3.888v-12.512h3.888v12.512zM13.332 13.91c-1.228 0-2.022-0.87-2.022-1.946 0-1.098 0.818-1.942 2.072-1.942s2.022 0.844 2.046 1.942c0 1.076-0.792 1.946-2.096 1.946zM29.5 27.958h-3.888v-6.934c0-1.614-0.564-2.71-1.97-2.71-1.074 0-1.712 0.742-1.994 1.456-0.104 0.254-0.13 0.614-0.13 0.972v7.214h-3.89v-8.52c0-1.562-0.050-2.868-0.102-3.992h3.378l0.178 1.738h0.078c0.512-0.816 1.766-2.020 3.864-2.020 2.558 0 4.476 1.714 4.476 5.398v7.398z"></path>
</svg>
