<!-- Generated by IcoMoon.io -->
<svg version="1.1" xmlns="http://www.w3.org/2000/svg" width="48" height="56" viewBox="0 0 48 56">
<title>github-square</title>
<path d="M16.219 37.5v0c0.063-0.094 0.031-0.281-0.094-0.406-0.156-0.125-0.344-0.156-0.438-0.063-0.063 0.094-0.031 0.281 0.094 0.406 0.156 0.125 0.344 0.156 0.438 0.063zM15.344 36.219c-0.094-0.125-0.25-0.188-0.375-0.125-0.094 0.063-0.094 0.25 0 0.375 0.125 0.156 0.281 0.219 0.375 0.156v0c0.094-0.063 0.094-0.25 0-0.406zM14.063 34.969v0c0.031-0.063-0.031-0.188-0.156-0.25-0.094-0.031-0.219-0.031-0.25 0.063-0.063 0.094 0 0.188 0.125 0.25 0.125 0.031 0.25 0.031 0.281-0.063zM14.719 35.687v0c0.063-0.063 0.063-0.219-0.063-0.312-0.094-0.125-0.25-0.156-0.312-0.094-0.094 0.094-0.063 0.219 0.031 0.344 0.094 0.094 0.25 0.156 0.344 0.063zM17.406 38.031v0c0.031-0.125-0.094-0.281-0.281-0.344s-0.344 0-0.406 0.125c-0.031 0.125 0.094 0.281 0.281 0.344s0.344 0 0.406-0.125zM18.719 38.125v0c0-0.125-0.156-0.25-0.375-0.25-0.188 0-0.312 0.125-0.312 0.25s0.156 0.25 0.344 0.25 0.344-0.125 0.344-0.25zM19.937 37.906v0c-0.031-0.125-0.219-0.188-0.406-0.156s-0.312 0.156-0.281 0.281 0.188 0.219 0.375 0.188 0.312-0.188 0.312-0.312zM40 28c0-8.844-7.156-16-16-16s-16 7.156-16 16c0 7.063 4.594 13.062 10.938 15.187 0.812 0.156 1.094-0.344 1.094-0.781 0-0.375 0-1.625-0.031-2.969 0 0-4.438 0.969-5.375-1.906 0 0-0.719-1.844-1.781-2.313 0 0-1.438-1 0.125-1 0 0 1.562 0.125 2.437 1.656 1.406 2.469 3.75 1.75 4.656 1.344 0.156-1.031 0.563-1.75 1.031-2.156-3.563-0.406-7.312-1.781-7.312-7.906 0-1.75 0.625-3.156 1.656-4.281-0.156-0.406-0.719-2.031 0.156-4.25 1.344-0.406 4.406 1.656 4.406 1.656 1.281-0.375 2.625-0.531 4-0.531s2.719 0.156 4 0.531c0 0 3.063-2.062 4.406-1.656 0.875 2.219 0.312 3.844 0.156 4.25 1.031 1.125 1.656 2.531 1.656 4.281 0 6.156-3.75 7.5-7.312 7.906 0.563 0.5 1.094 1.469 1.094 2.969 0 2.125-0.031 3.844-0.031 4.375 0 0.438 0.281 0.938 1.094 0.781 6.344-2.125 10.938-8.125 10.938-15.187zM48 13v30c0 4.969-4.031 9-9 9h-30c-4.969 0-9-4.031-9-9v-30c0-4.969 4.031-9 9-9h30c4.969 0 9 4.031 9 9z"></path>
</svg>
