<svg aria-hidden="true" style="position: absolute; width: 0; height: 0; overflow: hidden;" version="1.1" xmlns="http://www.w3.org/2000/svg" xmlns:xlink="http://www.w3.org/1999/xlink">
<defs>
<symbol id="icon-external-link" viewBox="0 0 28 28">
<title>external-link</title>
<path d="M22 14.5v5c0 2.484-2.016 4.5-4.5 4.5h-13c-2.484 0-4.5-2.016-4.5-4.5v-13c0-2.484 2.016-4.5 4.5-4.5h11c0.281 0 0.5 0.219 0.5 0.5v1c0 0.281-0.219 0.5-0.5 0.5h-11c-1.375 0-2.5 1.125-2.5 2.5v13c0 1.375 1.125 2.5 2.5 2.5h13c1.375 0 2.5-1.125 2.5-2.5v-5c0-0.281 0.219-0.5 0.5-0.5h1c0.281 0 0.5 0.219 0.5 0.5zM28 1v8c0 0.547-0.453 1-1 1-0.266 0-0.516-0.109-0.703-0.297l-2.75-2.75-10.187 10.187c-0.094 0.094-0.234 0.156-0.359 0.156s-0.266-0.063-0.359-0.156l-1.781-1.781c-0.094-0.094-0.156-0.234-0.156-0.359s0.063-0.266 0.156-0.359l10.187-10.187-2.75-2.75c-0.187-0.187-0.297-0.438-0.297-0.703 0-0.547 0.453-1 1-1h8c0.547 0 1 0.453 1 1z"></path>
</symbol>
<symbol id="icon-github-square" viewBox="0 0 24 28">
<title>github-square</title>
<path d="M8.109 18.75v0c0.031-0.047 0.016-0.141-0.047-0.203-0.078-0.063-0.172-0.078-0.219-0.031-0.031 0.047-0.016 0.141 0.047 0.203 0.078 0.063 0.172 0.078 0.219 0.031zM7.672 18.109c-0.047-0.063-0.125-0.094-0.187-0.063-0.047 0.031-0.047 0.125 0 0.187 0.063 0.078 0.141 0.109 0.187 0.078v0c0.047-0.031 0.047-0.125 0-0.203zM7.031 17.484v0c0.016-0.031-0.016-0.094-0.078-0.125-0.047-0.016-0.109-0.016-0.125 0.031-0.031 0.047 0 0.094 0.063 0.125 0.063 0.016 0.125 0.016 0.141-0.031zM7.359 17.844v0c0.031-0.031 0.031-0.109-0.031-0.156-0.047-0.063-0.125-0.078-0.156-0.047-0.047 0.047-0.031 0.109 0.016 0.172 0.047 0.047 0.125 0.078 0.172 0.031zM8.703 19.016v0c0.016-0.063-0.047-0.141-0.141-0.172s-0.172 0-0.203 0.063c-0.016 0.063 0.047 0.141 0.141 0.172s0.172 0 0.203-0.063zM9.359 19.063v0c0-0.063-0.078-0.125-0.187-0.125-0.094 0-0.156 0.063-0.156 0.125s0.078 0.125 0.172 0.125 0.172-0.063 0.172-0.125zM9.969 18.953v0c-0.016-0.063-0.109-0.094-0.203-0.078s-0.156 0.078-0.141 0.141 0.094 0.109 0.187 0.094 0.156-0.094 0.156-0.156zM20 14c0-4.422-3.578-8-8-8s-8 3.578-8 8c0 3.531 2.297 6.531 5.469 7.594 0.406 0.078 0.547-0.172 0.547-0.391 0-0.187 0-0.812-0.016-1.484 0 0-2.219 0.484-2.688-0.953 0 0-0.359-0.922-0.891-1.156 0 0-0.719-0.5 0.063-0.5 0 0 0.781 0.063 1.219 0.828 0.703 1.234 1.875 0.875 2.328 0.672 0.078-0.516 0.281-0.875 0.516-1.078-1.781-0.203-3.656-0.891-3.656-3.953 0-0.875 0.313-1.578 0.828-2.141-0.078-0.203-0.359-1.016 0.078-2.125 0.672-0.203 2.203 0.828 2.203 0.828 0.641-0.187 1.313-0.266 2-0.266s1.359 0.078 2 0.266c0 0 1.531-1.031 2.203-0.828 0.438 1.109 0.156 1.922 0.078 2.125 0.516 0.562 0.828 1.266 0.828 2.141 0 3.078-1.875 3.75-3.656 3.953 0.281 0.25 0.547 0.734 0.547 1.484 0 1.062-0.016 1.922-0.016 2.188 0 0.219 0.141 0.469 0.547 0.391 3.172-1.062 5.469-4.062 5.469-7.594zM24 6.5v15c0 2.484-2.016 4.5-4.5 4.5h-15c-2.484 0-4.5-2.016-4.5-4.5v-15c0-2.484 2.016-4.5 4.5-4.5h15c2.484 0 4.5 2.016 4.5 4.5z"></path>
</symbol>
<symbol id="icon-github" viewBox="0 0 64 64">
<title>github</title>
<path d="M32 0.792c-17.68 0-32 14.328-32 32 0 14.141 9.168 26.133 21.88 30.36 1.6 0.301 2.187-0.688 2.187-1.539 0-0.76-0.027-2.773-0.040-5.44-8.901 1.931-10.779-4.293-10.779-4.293-1.456-3.693-3.56-4.68-3.56-4.68-2.899-1.984 0.224-1.944 0.224-1.944 3.213 0.224 4.901 3.296 4.901 3.296 2.853 4.893 7.491 3.48 9.32 2.661 0.288-2.069 1.112-3.48 2.027-4.28-7.107-0.8-14.576-3.552-14.576-15.813 0-3.493 1.24-6.347 3.293-8.587-0.36-0.808-1.44-4.061 0.28-8.469 0 0 2.68-0.859 8.8 3.28 2.56-0.712 5.28-1.064 8-1.080 2.72 0.016 5.44 0.368 8 1.080 6.080-4.139 8.76-3.28 8.76-3.28 1.72 4.408 0.64 7.661 0.32 8.469 2.040 2.24 3.28 5.093 3.28 8.587 0 12.293-7.48 15-14.6 15.787 1.12 0.96 2.16 2.923 2.16 5.92 0 4.283-0.040 7.723-0.040 8.763 0 0.84 0.56 1.84 2.2 1.52 12.803-4.197 21.963-16.197 21.963-30.317 0-17.672-14.328-32-32-32z"></path>
</symbol>
<symbol id="icon-linkedin-with-circle" viewBox="0 0 80 80">
<title>linkedin-with-circle</title>
<path d="M40 1.6c-21.208 0-38.4 17.192-38.4 38.4s17.192 38.4 38.4 38.4 38.4-17.192 38.4-38.4-17.192-38.4-38.4-38.4zM30.6 55.916h-7.776v-25.024h7.776v25.024zM26.664 27.82c-2.456 0-4.044-1.74-4.044-3.892 0-2.196 1.636-3.884 4.144-3.884s4.044 1.688 4.092 3.884c0 2.152-1.584 3.892-4.192 3.892zM59 55.916h-7.776v-13.868c0-3.228-1.128-5.42-3.94-5.42-2.148 0-3.424 1.484-3.988 2.912-0.208 0.508-0.26 1.228-0.26 1.944v14.428h-7.78v-17.040c0-3.124-0.1-5.736-0.204-7.984h6.756l0.356 3.476h0.156c1.024-1.632 3.532-4.040 7.728-4.040 5.116 0 8.952 3.428 8.952 10.796v14.796z"></path>
</symbol>
<symbol id="icon-linkedin" viewBox="0 0 80 80">
<title>linkedin</title>
<path d="M20 12c0 4.248-2.84 7.904-8.004 7.904-4.86 0-7.996-3.448-7.996-7.696 0-4.36 3.040-8.208 8-8.208s7.904 3.64 8 8zM4 76v-52h16v52h-16z"></path>
<path d="M28 41.776c0-6.18-0.204-11.344-0.408-15.804h14.376l0.712 6.892h0.304c2.024-3.244 6.984-8 15.288-8 10.128 0 17.728 6.78 17.728 21.368v29.768h-16v-27.444c0-6.376-2.428-11.24-8-11.24-4.248 0-6.376 3.44-7.492 6.276-0.408 1.016-0.508 2.432-0.508 3.852v28.556h-16v-34.224z"></path>
</symbol>
<symbol id="icon-envelop" viewBox="0 0 64 64">
<title>envelop</title>
<path d="M58 8h-52c-3.3 0-6 2.7-6 6v40c0 3.3 2.7 6 6 6h52c3.3 0 6-2.7 6-6v-40c0-3.3-2.7-6-6-6zM24.921 34.398l-16.921 13.181v-31.353l16.921 18.172zM11.024 16h41.953l-20.976 15.75-20.976-15.75zM25.581 35.106l6.419 6.894 6.419-6.894 13.16 16.894h-39.158l13.16-16.894zM39.079 34.398l16.921-18.172v31.353l-16.921-13.181z"></path>
</symbol>
<symbol id="icon-mobile" viewBox="0 0 64 64">
<title>mobile</title>
<path d="M46 0h-28c-3.3 0-6 2.7-6 6v52c0 3.3 2.7 6 6 6h28c3.3 0 6-2.7 6-6v-52c0-3.3-2.7-6-6-6zM24 3h16v2h-16v-2zM32 60c-2.209 0-4-1.791-4-4s1.791-4 4-4 4 1.791 4 4-1.791 4-4 4zM48 48h-32v-40h32v40z"></path>
</symbol>
<symbol id="icon-mail4" viewBox="0 0 64 64">
<title>mail4</title>
<path d="M32 0c-17.673 0-32 14.327-32 32s14.327 32 32 32 32-14.327 32-32-14.327-32-32-32zM16 16h32c0.571 0 1.125 0.123 1.634 0.354l-17.634 20.573-17.634-20.573c0.509-0.231 1.063-0.354 1.634-0.354zM12 44v-24c0-0.084 0.004-0.167 0.009-0.25l11.729 13.684-11.6 11.6c-0.090-0.334-0.138-0.68-0.138-1.034zM48 48h-32c-0.353 0-0.7-0.048-1.034-0.138l11.382-11.382 5.651 6.594 5.651-6.593 11.382 11.383c-0.334 0.090-0.68 0.138-1.034 0.138zM52 44c0 0.353-0.048 0.7-0.138 1.034l-11.6-11.6 11.729-13.684c0.005 0.083 0.009 0.166 0.009 0.25v24z"></path>
</symbol>
<symbol id="icon-github1" viewBox="0 0 64 64">
<title>github1</title>
<path d="M32.001 0.79c-17.671 0-32.001 14.326-32.001 32 0 14.138 9.169 26.133 21.884 30.365 1.599 0.296 2.187-0.694 2.187-1.539 0-0.763-0.030-3.284-0.044-5.958-8.903 1.936-10.781-3.776-10.781-3.776-1.455-3.699-3.553-4.682-3.553-4.682-2.903-1.986 0.219-1.945 0.219-1.945 3.213 0.226 4.905 3.298 4.905 3.298 2.855 4.892 7.486 3.477 9.313 2.66 0.287-2.068 1.116-3.48 2.032-4.279-7.108-0.809-14.58-3.553-14.58-15.815 0-3.494 1.25-6.348 3.297-8.589-0.332-0.806-1.428-4.061 0.309-8.469 0 0 2.688-0.86 8.802 3.281 2.552-0.709 5.29-1.065 8.010-1.077 2.719 0.012 5.459 0.368 8.016 1.077 6.108-4.14 8.791-3.281 8.791-3.281 1.742 4.408 0.647 7.663 0.315 8.469 2.051 2.241 3.293 5.096 3.293 8.589 0 12.291-7.486 14.997-14.612 15.789 1.148 0.993 2.17 2.94 2.17 5.926 0 4.282-0.037 7.728-0.037 8.782 0 0.852 0.576 1.85 2.198 1.535 12.708-4.236 21.865-16.227 21.865-30.361 0-17.674-14.327-32-32-32z"></path>
</symbol>
<symbol id="icon-linkedin1" viewBox="0 0 64 64">
<title>linkedin1</title>
<path d="M58 0h-52c-3.3 0-6 2.7-6 6v52c0 3.3 2.7 6 6 6h52c3.3 0 6-2.7 6-6v-52c0-3.3-2.7-6-6-6zM24 52h-8v-28h8v28zM20 20c-2.212 0-4-1.788-4-4s1.788-4 4-4c2.212 0 4 1.787 4 4s-1.788 4-4 4zM52 52h-8v-16c0-2.212-1.788-4-4-4s-4 1.788-4 4v16h-8v-28h8v4.962c1.65-2.262 4.175-4.962 7-4.962 4.975 0 9 4.475 9 10v18z"></path>
</symbol>
</defs>
</svg>
